<svg width="512" height="512" viewBox="0 0 512 512" fill="none" xmlns="http://www.w3.org/2000/svg">
<rect width="512" height="512" rx="256" fill="#000817"/>
<path d="M415.08 246.028C398.968 234.882 371.908 238.635 354.132 242.529C341.998 245.181 330.063 248.624 318.07 251.812C305.063 255.255 300.435 257.032 288.894 249.499V249.499C265.93 234.502 270.474 199.68 296.594 191.309C308.537 187.482 320.522 183.76 332.574 180.17C348.657 175.373 365.954 168.15 382.63 166.174C393.55 164.905 394.228 169.56 399.73 177.856C403.313 183.274 415.136 193.77 418.381 180.706C420.272 173.088 410.057 165.413 404.752 161.575C382.602 145.548 354.781 157.399 331.248 164.905C301.028 174.583 271.005 184.882 240.898 194.956C234.267 197.185 223.996 202.546 216.942 201.22C211.326 200.176 205.457 195.266 200.04 192.896C186.467 186.998 171.851 184.036 157.376 181.299C142.788 178.562 128.482 176.304 113.668 179.069C104.159 180.847 87.2573 184.036 85.5643 195.407C82.5168 215.808 110.31 228.477 126.45 228.985C141.321 229.465 157.094 226.191 171.823 224.273C184.436 222.636 200.407 217.755 213.132 219.024C224.899 220.21 236.101 232.258 245.525 239.143C247.527 240.605 249.527 242.069 251.527 243.535C265.241 253.585 263.039 274.855 247.472 281.694V281.694C235.79 286.801 231.417 288.24 219.904 282.992C198.431 273.201 175.66 264.115 151.394 268.742C129.977 272.806 137.003 292.698 151.084 300.881C160.282 306.214 164.035 306.158 174.024 307.286C183.787 308.415 192.675 315.046 202.833 316.372C215.249 317.981 223.826 312.055 235.311 311.519C245.384 311.039 254.103 319.871 261.806 325.43C280.373 338.805 298.347 352.067 320.808 358.105C330.74 360.786 356.191 368.15 358.59 352.49C359.69 345.379 354.809 336.124 348.545 333.161C345.384 331.666 341.349 330.932 337.935 332.23V332.23C331.391 334.691 327.877 343.085 321.053 341.563C304.286 337.824 288.727 328.032 274.842 318.206C271.033 315.526 255.937 307.569 257.376 301.587C258.731 295.943 279.16 289.764 283.759 287.591C296.09 281.722 301.902 278.844 315.277 282.512C327.297 285.814 339.177 289.623 351.141 293.009C371.682 298.821 395.356 301.756 414.741 289.736C430.825 279.803 430.345 256.581 415.08 246.028ZM137.427 219.419C127.777 219.814 95.3273 215.779 95.9762 201.756C96.7099 186.378 135.677 188.155 145.694 189.086C155.909 190.018 165.672 192.896 175.406 196.056V196.056C191.179 201.144 186.89 211.557 170.647 214.843C159.594 217.079 148.477 218.959 137.427 219.419ZM169.283 297.608C161.185 296.226 140.418 294.194 147.669 282.935C154.159 272.862 170.835 278.534 179.78 280.424V280.424C202.136 285.169 198.174 300.788 175.44 298.45C173.385 298.238 171.331 297.958 169.283 297.608ZM418.014 269.899C413.274 287.365 383.646 285.588 370.413 283.838C360.367 282.484 350.548 279.521 340.841 276.7C336.694 275.486 329.329 274.978 326.169 272.439V272.439C322.087 269.142 326.914 263.925 331.972 262.531C349.35 257.743 366.973 252.258 384.803 250.684C395.921 249.696 422.755 252.433 418.014 269.899Z" fill="#3DD2CC"/>
</svg>
