<svg width="512" height="512" viewBox="0 0 512 512" fill="none" xmlns="http://www.w3.org/2000/svg">
<rect width="512" height="512" fill="#0C0A09"/>
<path d="M184.04 399.56C182.12 399.56 181.16 398.813 181.16 397.32C181.16 396.253 181.8 395.613 183.08 395.4C183.933 395.187 184.787 394.973 185.64 394.76C186.707 394.547 187.88 394.333 189.16 394.12C198.973 390.707 209 380.147 219.24 362.44C197.267 361.8 180.093 355.933 167.72 344.84C154.493 332.893 147.88 316.04 147.88 294.28C147.88 268.893 157.373 242.653 176.36 215.56C194.067 190.387 215.08 171.613 239.4 159.24C233.64 158.6 229.053 158.28 225.64 158.28C217.32 158.28 208.787 159.24 200.04 161.16C194.28 162.653 188.84 164.36 183.72 166.28C178.6 168.2 173.907 170.44 169.64 173C157.267 180.253 151.08 188.36 151.08 197.32C151.08 198.387 151.187 199.24 151.4 199.88V202.12C151.4 205.107 150.44 206.6 148.52 206.6C145.96 206.6 144.04 204.893 142.76 201.48C141.053 197.64 140.2 194.44 140.2 191.88C140.2 179.293 151.507 169.587 174.12 162.76C190.76 157.853 207.293 155.4 223.72 155.4C226.28 155.4 229.267 155.613 232.68 156.04C236.093 156.253 239.827 156.573 243.88 157C249 154.653 254.013 152.627 258.92 150.92C264.04 149 269.16 147.507 274.28 146.44C274.493 143.027 274.6 139.72 274.6 136.52C274.6 133.32 274.6 130.333 274.6 127.56C274.6 126.493 274.6 125.213 274.6 123.72C274.6 122.227 274.493 120.413 274.28 118.28C274.067 116.147 273.96 114.333 273.96 112.84C273.96 111.133 273.96 109.853 273.96 109C273.96 107.293 274.493 106.44 275.56 106.44C275.987 106.44 276.413 106.973 276.84 108.04C278.547 114.227 279.4 122.44 279.4 132.68C279.4 134.6 279.4 136.627 279.4 138.76C279.4 140.893 279.293 143.133 279.08 145.48C283.133 144.627 287.08 143.987 290.92 143.56C294.76 143.133 298.493 142.92 302.12 142.92C321.32 142.92 336.253 147.933 346.92 157.96C352.467 162.867 356.84 168.947 360.04 176.2C363.24 183.453 364.84 191.773 364.84 201.16V202.44C364.84 206.067 363.347 207.88 360.36 207.88C358.867 207.88 356.947 207.24 354.6 205.96C345.427 200.413 337.64 195.827 331.24 192.2C325.053 188.573 320.36 185.907 317.16 184.2C303.293 176.947 289.96 171.293 277.16 167.24C275.667 182.173 273.427 197.427 270.44 213C267.453 228.36 263.933 244.253 259.88 260.68C255.187 278.173 250.28 294.387 245.16 309.32C240.253 324.253 234.813 337.907 228.84 350.28C230.12 350.493 231.4 350.6 232.68 350.6C234.173 350.6 235.667 350.6 237.16 350.6C249.107 350.6 260.84 349.107 272.36 346.12C284.093 343.133 295.72 338.76 307.24 333C319.187 326.813 329.747 319.88 338.92 312.2C348.093 304.52 355.773 295.773 361.96 285.96C363.667 283.4 364.733 282.12 365.16 282.12V283.08C365.16 283.933 365.053 284.787 364.84 285.64C364.84 286.28 364.627 286.92 364.2 287.56C351.827 308.893 331.347 326.92 302.76 341.64C275.667 355.08 249 362.013 222.76 362.44C208.893 387.187 195.987 399.56 184.04 399.56ZM352.36 189.96C353.853 189.96 354.6 188.893 354.6 186.76C354.6 184.627 353.96 182.173 352.68 179.4C347.133 169.8 337.96 162.547 325.16 157.64C314.067 153.16 302.333 150.92 289.96 150.92C288.04 150.92 286.12 151.027 284.2 151.24C282.28 151.24 280.36 151.347 278.44 151.56C278.227 153.053 278.013 154.76 277.8 156.68C277.8 158.6 277.693 160.52 277.48 162.44C289.64 165 301.587 168.52 313.32 173C325.267 177.267 336.893 182.493 348.2 188.68C349.907 189.533 351.293 189.96 352.36 189.96ZM273.32 161.48C273.533 159.773 273.64 158.173 273.64 156.68C273.64 154.973 273.747 153.373 273.96 151.88C269.907 152.52 265.853 153.373 261.8 154.44C257.96 155.293 254.227 156.467 250.6 157.96C254.867 158.6 258.813 159.24 262.44 159.88C266.28 160.307 269.907 160.84 273.32 161.48ZM225.64 349.96C237.373 326.067 247.613 296.093 256.36 260.04C260.413 244.04 263.827 228.253 266.6 212.68C269.373 196.893 271.507 181.32 273 165.96C268.52 164.68 264.04 163.613 259.56 162.76C255.08 161.693 250.387 160.733 245.48 159.88C234.173 165.213 223.72 172.147 214.12 180.68C204.52 189.213 195.987 199.453 188.52 211.4C173.16 235.08 165.48 259.613 165.48 285C165.48 304.2 170.813 319.24 181.48 330.12C192.147 341.853 206.867 348.467 225.64 349.96Z" fill="#00BBA7"/>
</svg>
